<svg xmlns="http://www.w3.org/2000/svg" version="1.1" xmlns:xlink="http://www.w3.org/1999/xlink" xmlns:svgjs="http://svgjs.com/svgjs" width="512" height="512" x="0" y="0" viewBox="0 0 24 24" style="enable-background:new 0 0 512 512" xml:space="preserve" class=""><g><path fill="#000000" fill-rule="evenodd" d="M12 6a6.002 6.002 0 0 0-5.428 3.438 1 1 0 0 1-.839.57 4 4 0 0 0 .074 7.988L7.004 18a1 1 0 1 1-.008 2l-1.217-.005H5.74a6 6 0 0 1-.715-11.916 8.003 8.003 0 0 1 14.737 1.979 5.001 5.001 0 0 1-.56 9.937l-2.2.005a1 1 0 1 1-.004-2l2.174-.005A3 3 0 0 0 19.006 12h-.063a1 1 0 0 1-1.004-.858A6.002 6.002 0 0 0 12 6zm-3.707 8.293 3-3a1 1 0 0 1 1.414 0l3 3a1 1 0 0 1-1.414 1.414L13 14.414V20a1 1 0 1 1-2 0v-5.586l-1.293 1.293a1 1 0 0 1-1.414-1.414z" clip-rule="evenodd" data-original="#000000" class=""></path></g></svg>